<svg width="61" height="80" viewBox="0 0 61 80" fill="none" xmlns="http://www.w3.org/2000/svg">
<path d="M4.71262 58.9144L14.2103 31.0517L9.18551 30.4347L10.6182 26.2028L15.6429 26.8197L17.1795 22.2542C17.9627 19.9785 18.6763 18.3555 19.3202 17.3851C19.9847 16.4172 20.947 15.6747 22.2069 15.1578C23.49 14.6226 25.1551 14.4808 27.2022 14.7321C28.629 14.9073 30.66 15.461 33.2952 16.3933L31.6699 21.1683C29.8285 20.4385 28.2667 19.9948 26.9847 19.8374C25.8887 19.7028 25.017 19.8792 24.3695 20.3664C23.7451 20.8355 23.1005 22.0682 22.4356 24.0645L21.257 27.5091L27.5225 28.2784L26.0898 32.5103L19.8244 31.741L10.3267 59.6037L4.71262 58.9144ZM21.679 60.9976L36.7843 16.6958L42.3674 17.3813L33.0123 44.8522L51.3126 31.1994L58.7257 32.1096L43.1668 42.6672L49.1291 64.3681L42.9877 63.614L38.4877 45.9023L30.9403 50.9577L27.293 61.6869L21.679 60.9976Z" fill="black"/>
</svg>
