<svg width="203" height="81" viewBox="0 0 203 81" fill="none" xmlns="http://www.w3.org/2000/svg">
<path d="M4.71262 59.9144L14.2103 32.0517L9.18551 31.4347L10.6182 27.2028L15.6429 27.8197L17.1795 23.2542C17.9627 20.9785 18.6763 19.3555 19.3202 18.3851C19.9847 17.4172 20.947 16.6747 22.2069 16.1578C23.49 15.6226 25.1551 15.4808 27.2022 15.7321C28.629 15.9073 30.66 16.461 33.2952 17.3933L31.6699 22.1683C29.8285 21.4385 28.2667 20.9948 26.9847 20.8374C25.8887 20.7028 25.017 20.8792 24.3695 21.3664C23.7451 21.8355 23.1005 23.0682 22.4356 25.0645L21.257 28.5091L27.5225 29.2784L26.0898 33.5103L19.8244 32.741L10.3267 60.6037L4.71262 59.9144ZM21.679 61.9976L36.7843 17.6958L42.3674 18.3813L33.0123 45.8522L51.3126 32.1994L58.7257 33.1096L43.1668 43.6672L49.1291 65.3681L42.9877 64.614L38.4877 46.9023L30.9403 51.9577L27.293 62.6869L21.679 61.9976Z" fill="black"/>
<path d="M61.9689 49.0936L67.5314 48.2186C67.8439 50.4477 68.7085 52.1561 70.1252 53.3436C71.5627 54.5311 73.5627 55.1248 76.1252 55.1248C78.7085 55.1248 80.6252 54.604 81.8752 53.5623C83.1252 52.4998 83.7502 51.2602 83.7502 49.8436C83.7502 48.5727 83.1981 47.5727 82.0939 46.8436C81.3231 46.3436 79.4064 45.7082 76.3439 44.9373C72.2189 43.8957 69.3543 42.9998 67.7502 42.2498C66.1668 41.479 64.9585 40.4269 64.1252 39.0936C63.3127 37.7394 62.9064 36.2498 62.9064 34.6248C62.9064 33.1457 63.2398 31.7811 63.9064 30.5311C64.5939 29.2602 65.521 28.2082 66.6877 27.3748C67.5627 26.729 68.7502 26.1873 70.2502 25.7498C71.771 25.2915 73.396 25.0623 75.1252 25.0623C77.7293 25.0623 80.0106 25.4373 81.9689 26.1873C83.9481 26.9373 85.4064 27.9582 86.3439 29.2498C87.2814 30.5207 87.9273 32.229 88.2814 34.3748L82.7814 35.1248C82.5314 33.4165 81.8023 32.0832 80.5939 31.1248C79.4064 30.1665 77.7189 29.6873 75.5314 29.6873C72.9481 29.6873 71.1043 30.1144 70.0002 30.9686C68.896 31.8227 68.3439 32.8227 68.3439 33.9686C68.3439 34.6977 68.5731 35.354 69.0314 35.9373C69.4898 36.5415 70.2085 37.0415 71.1877 37.4373C71.7502 37.6457 73.4064 38.1248 76.1564 38.8748C80.1356 39.9373 82.9064 40.8123 84.4689 41.4998C86.0523 42.1665 87.2918 43.1457 88.1877 44.4373C89.0835 45.729 89.5314 47.3332 89.5314 49.2498C89.5314 51.1248 88.9793 52.8957 87.8752 54.5623C86.7918 56.2082 85.2189 57.4894 83.1564 58.4061C81.0939 59.3019 78.7606 59.7498 76.1564 59.7498C71.8439 59.7498 68.5523 58.854 66.2814 57.0623C64.0314 55.2707 62.5939 52.6144 61.9689 49.0936ZM108.5 53.9686L109.313 58.9373C107.729 59.2707 106.313 59.4373 105.063 59.4373C103.021 59.4373 101.438 59.1144 100.313 58.4686C99.1877 57.8227 98.396 56.979 97.9377 55.9373C97.4793 54.8748 97.2502 52.6561 97.2502 49.2811V30.1873H93.1252V25.8123H97.2502V17.5936L102.844 14.2186V25.8123H108.5V30.1873H102.844V49.5936C102.844 51.1977 102.938 52.229 103.125 52.6873C103.334 53.1457 103.656 53.5102 104.094 53.7811C104.552 54.0519 105.198 54.1873 106.031 54.1873C106.656 54.1873 107.479 54.1144 108.5 53.9686ZM111.938 42.4061C111.938 36.2602 113.646 31.7082 117.063 28.7498C119.917 26.2915 123.396 25.0623 127.5 25.0623C132.063 25.0623 135.792 26.5623 138.688 29.5623C141.584 32.5415 143.031 36.6665 143.031 41.9373C143.031 46.2082 142.386 49.5727 141.094 52.0311C139.823 54.4686 137.959 56.3644 135.5 57.7186C133.063 59.0727 130.396 59.7498 127.5 59.7498C122.854 59.7498 119.094 58.2602 116.219 55.2811C113.365 52.3019 111.938 48.0102 111.938 42.4061ZM117.719 42.4061C117.719 46.6561 118.646 49.8436 120.5 51.9686C122.354 54.0727 124.688 55.1248 127.5 55.1248C130.292 55.1248 132.615 54.0623 134.469 51.9373C136.323 49.8123 137.25 46.5727 137.25 42.2186C137.25 38.1144 136.313 35.0102 134.438 32.9061C132.584 30.7811 130.271 29.7186 127.5 29.7186C124.688 29.7186 122.354 30.7707 120.5 32.8748C118.646 34.979 117.719 38.1561 117.719 42.4061ZM149.594 58.9998V25.8123H154.656V30.8436C155.948 28.4894 157.136 26.9373 158.219 26.1873C159.323 25.4373 160.531 25.0623 161.844 25.0623C163.74 25.0623 165.667 25.6665 167.625 26.8748L165.688 32.0936C164.313 31.2811 162.938 30.8748 161.563 30.8748C160.334 30.8748 159.229 31.2498 158.25 31.9998C157.271 32.729 156.573 33.7498 156.156 35.0623C155.531 37.0623 155.219 39.2498 155.219 41.6248V58.9998H149.594ZM193.688 48.3123L199.5 49.0311C198.584 52.4269 196.886 55.0623 194.406 56.9373C191.927 58.8123 188.761 59.7498 184.906 59.7498C180.052 59.7498 176.198 58.2602 173.344 55.2811C170.511 52.2811 169.094 48.0832 169.094 42.6873C169.094 37.104 170.531 32.7707 173.406 29.6873C176.281 26.604 180.011 25.0623 184.594 25.0623C189.031 25.0623 192.656 26.5727 195.469 29.5936C198.281 32.6144 199.688 36.8644 199.688 42.3436C199.688 42.6769 199.677 43.1769 199.656 43.8436H174.906C175.115 47.4894 176.146 50.2811 178 52.2186C179.854 54.1561 182.167 55.1248 184.938 55.1248C187 55.1248 188.761 54.5832 190.219 53.4998C191.677 52.4165 192.834 50.6873 193.688 48.3123ZM175.219 39.2186H193.75C193.5 36.4269 192.792 34.3332 191.625 32.9373C189.834 30.7707 187.511 29.6873 184.656 29.6873C182.073 29.6873 179.896 30.5519 178.125 32.2811C176.375 34.0102 175.406 36.3227 175.219 39.2186Z" fill="black"/>
</svg>
